<svg version="1.2" xmlns="http://www.w3.org/2000/svg" viewBox="0 0 210 700" width="210" height="700">
	<title>bt-bonus-axeboat-svg</title>
	<style>
		.s0 { fill: #ffffff } 
		.s1 { fill: none } 
	</style>
	<g id="a">
		<path fill-rule="evenodd" class="s0" d="m45.6 20v17.3c0 1.3-1 2.3-2.3 2.3h-24.4c-1.3 0-2.3-1-2.3-2.3v-17.3c0-1.3 1-2.3 2.3-2.3h2.6v-5.4c0-4.3 4.1-9.1 9.5-9.1 5.4 0.1 9.5 4.8 9.5 9.1v5.4h2.8c1.3 0 2.3 1 2.3 2.3zm-20.5-2.2h12v-5.4c0-2.3-2.3-5.6-6-5.6-3.7 0-6 3.3-6 5.6z"/>
		<g>
			<path class="s0" d="m16 451.4c-1.2 0-2.2-1-2.2-2.2 0-1.2 1-2.2 2.2-2.2 1.2 0 2.2 1 2.2 2.2 0 1.2-1 2.2-2.2 2.2z"/>
			<path class="s0" d="m22.2 424.6c-1.2 0-2.2-1-2.2-2.2 0-1.2 1-2.2 2.2-2.2 1.2 0 2.2 1 2.2 2.2 0 1.2-1 2.2-2.2 2.2z"/>
			<path fill-rule="evenodd" class="s0" d="m47.6 444.4c4.5 4.4 4.4 11.7 0 16.2-4.4 4.5-11.7 4.5-16.2 0-0.6-0.7-1.1-1.4-1.6-2.1l-19.5-30.7 17.9 12-6.5-12.3c0 0 23.4 14.9 24.1 15.3 0.7 0.4 1.3 0.9 1.9 1.5zm-3 3c-2.8-2.8-7.2-2.8-10 0-2.8 2.8-2.8 7.2 0 10 2.8 2.8 7.2 2.8 10 0 2.8-2.8 2.8-7.2 0-10z"/>
			<path fill-rule="evenodd" class="s0" d="m44.8 234.4c1.4 1.5 4 1.1 5.4 0.7-0.7 9.8-7.9 17.5-18.9 17.5-11 0-19.8-9.4-18.9-20.6 0.7-8.4 7.2-15.5 15.5-17 2.1-0.4 4.2-0.4 6.2-0.1-0.5 1.3-1 3.2 0.3 4.8 0.9 1.2 2.8 1.7 3.8 1.9 0.3 0 0.5 0.4 0.3 0.6-0.8 1-1.8 3-0.2 5.2 1.3 1.8 3.7 1.3 4.9 1 0.3-0.1 0.5 0.2 0.5 0.5-0.4 1.2-0.8 3.6 1 5.4zm-7.1-0.9c0-3.6-2.9-6.5-6.5-6.5-3.6 0-6.5 2.9-6.5 6.5 0 3.6 2.9 6.5 6.5 6.5 3.6 0 6.5-2.9 6.5-6.5z"/>
			<path class="s0" d="m42.1 208.7c-1.2-0.3-2-0.3-2.3 0.2-0.2 0.3-0.2 4.3-0.2 4.6 0 0.3 1 1 1.4 1.1 0.4 0.1 0.6 0.1 0.8-0.1 0.2-0.2 1.9-4 2.1-4.4 0.2-0.4-0.8-1.2-1.8-1.4z"/>
			<path class="s0" d="m47.4 215.1c-1.6 0.4-2.8 1.1-3.3 2.7-0.4 1.3-0.2 3.9 1.2 4.3 0.9 0.2 3-0.2 3.3-0.8 0.3-0.6 1-6.7-1.1-6.2z"/>
			<path class="s0" d="m189.8 165.4c0 0 2.1-9.4 0.3-13.6-1.8-4.2-7.6-8.8-7.6-8.8l-6.2 2.2 2.6 4.7-26.8 4.7c-0.4 0-0.7 0.5-0.6 0.9l0.4 2.6c0 0.4 0.5 0.7 0.9 0.6l15.9-2.7-10.7 24.3c-0.4 0.9 0 1.9 0.9 2.3 0.9 0.4 1.9 0 2.3-0.9l9.8-22.3 9.9 22.5c0.4 0.9 1.4 1.3 2.3 0.9 0.9-0.4 1.3-1.4 0.9-2.3l-11.1-25.3 8.5-1.4 8.2 11.7z"/>
			<path class="s0" d="m183.2 300.2c1.9 0 3.9-0.1 4.6-0.1 2.4 0 2.5-4 0-4h-25.8l-11.6 21.7h42.2l-9.6-17.6z"/>
			<path class="s0" d="m174.6 282.9c-0.2-0.3-1.4 0.4-2.2 0.3-0.4 0-1.4-0.3-1.8-0.4-0.4-0.1-1.9-0.3-2.3 0-0.1 0.1-1.6 3.1-2.3 4.7-2.6 0-7.3 0-8.1 0-2.4 0-2.5 4 0 4h20.5l-3.7-8.6z"/>
			<path class="s0" d="m31.2 305.7c-1.2 0-2.2-1-2.2-2.2 0-1.2 1-2.2 2.2-2.2 1.2 0 2.2 1 2.2 2.2 0 1.2-1 2.2-2.2 2.2z"/>
			<path fill-rule="evenodd" class="s0" d="m45.5 309.9c1.1-1.9 3.1-8 4.7-13.2 0.8 2.2 1.2-4.3 1.2 6.9 0 11.2-9.1 20.3-20.3 20.3-11.2 0-20.3-9.1-20.3-20.3 0-11.2 9.1-20.3 20.3-20.3 6.5 0 12.3 3 16 7.8-2 6.7-4.6 14.8-5.6 16.6-1.5 2.8-5 5.8-5 5.8-1 0.8-1.1 2.2-0.3 3.2 0.5 0.5 1.3 0.8 1.8 0.8 0.5 0 1.1-0.1 1.5-0.5 0.1-0.2 4.2-3.6 6.1-7.2zm-14.4 1.4c4.3 0 7.8-3.5 7.8-7.8 0-4.3-3.5-7.8-7.8-7.8-4.3 0-7.8 3.5-7.8 7.8 0 4.3 3.5 7.8 7.8 7.8z"/>
			<path class="s0" d="m124.9 296.1c-0.7-1.8-11.7 0.7-24.5 5.7-12.8 5-22.6 10.6-21.8 12.4 0.3 0.9 3.2 0.7 7.4-0.2 4.8 6.8 13.7 9.8 21.8 6.6 8.1-3.2 12.6-11.4 11.5-19.6 3.8-2.2 6-4 5.6-4.9z"/>
			<path class="s0" d="m98.8 297.6c6.1-2.4 12-4.3 16.7-5.5-4.9-6.2-13.4-8.8-21.1-5.8-7.7 3-12.2 10.7-11.6 18.6 4.2-2.4 9.9-5 16-7.4z"/>
			<path class="s0" d="m183.2 225.5h-24l-3 9.5h30z"/>
			<path class="s0" d="m189.2 239.5h-36l-3 10h42z"/>
			<path class="s0" d="m163.2 212v9h4.8v-4.5h6.5v4.5h4.8v-9h-16z"/>
			<path class="s0" d="m27.8 160.1l2.6-11.9c0.2-0.9 1.4-0.9 1.6 0l2.6 11.9 11.8 2.6c0.9 0.2 0.9 1.4 0 1.6l-11.8 2.6-2.6 11.9c-0.2 0.9-1.4 0.9-1.6 0l-2.6-11.9-11.8-2.6c-0.9-0.2-0.9-1.4 0-1.6z"/>
			<path class="s0" d="m39.8 156.6c-1.2 0-2.2-1-2.2-2.2 0-1.2 1-2.2 2.2-2.2 1.2 0 2.2 1 2.2 2.2 0 1.2-1 2.2-2.2 2.2z"/>
			<path class="s0" d="m46.6 150.6c-1.2 0-2.2-1-2.2-2.2 0-1.2 1-2.2 2.2-2.2 1.2 0 2.2 1 2.2 2.2 0 1.2-1 2.2-2.2 2.2z"/>
			<path class="s0" d="m15.2 180.1c-1.2 0-2.2-1-2.2-2.2 0-1.2 1-2.2 2.2-2.2 1.2 0 2.2 1 2.2 2.2 0 1.2-1 2.2-2.2 2.2z"/>
			<path class="s0" d="m22 174.1c-1.2 0-2.2-1-2.2-2.2 0-1.2 1-2.2 2.2-2.2 1.2 0 2.2 1 2.2 2.2 0 1.2-1 2.2-2.2 2.2z"/>
			<path class="s0" d="m39.8 174.1c-1.2 0-2.2-1-2.2-2.2 0-1.2 1-2.2 2.2-2.2 1.2 0 2.2 1 2.2 2.2 0 1.2-1 2.2-2.2 2.2z"/>
			<path class="s0" d="m46.6 180.1c-1.2 0-2.2-1-2.2-2.2 0-1.2 1-2.2 2.2-2.2 1.2 0 2.2 1 2.2 2.2 0 1.2-1 2.2-2.2 2.2z"/>
			<path class="s0" d="m22 156.6c-1.2 0-2.2-1-2.2-2.2 0-1.2 1-2.2 2.2-2.2 1.2 0 2.2 1 2.2 2.2 0 1.2-1 2.2-2.2 2.2z"/>
			<path class="s0" d="m15.2 150.6c-1.2 0-2.2-1-2.2-2.2 0-1.2 1-2.2 2.2-2.2 1.2 0 2.2 1 2.2 2.2 0 1.2-1 2.2-2.2 2.2z"/>
			<path class="s0" d="m82.2 161l19 23 19-23z"/>
			<path class="s0" d="m94.4 146.5l6.8 10 6.8-10h-13.5z"/>
			<path class="s0" d="m120.2 156.5l-6.8-10-6.8 10h13.5z"/>
			<path class="s0" d="m95.7 156.5l-6.8-10-6.8 10h13.5z"/>
			<path fill-rule="evenodd" class="s0" d="m192.1 457.7h-41.8l20.8-35.3zm-16.7-15.6c0-2.3-1.9-4.2-4.2-4.2-2.3 0-4.2 1.9-4.2 4.2 0 2.3 1.9 4.2 4.2 4.2 2.3 0 4.2-1.9 4.2-4.2z"/>
			<path class="s0" d="m85.4 238.8c-2.4 2.4-4.5 8.4-4.5 8.4 0 0 6-2.1 8.4-4.5z"/>
			<path class="s0" d="m92.1 245.5c-2.4 2.4-4.5 8.4-4.5 8.4 0 0 6-2.1 8.4-4.5z"/>
			<path fill-rule="evenodd" class="s0" d="m112.4 236l0.2 12.2-5.7 5.7-25.8-25.8 5.7-5.7 12.2 0.2 11.1-6.7c2.7-1.7 8.1-1.4 9.2-0.3 1.1 1.1 1.3 6.5-0.3 9.2l-6.7 11.1zm-2.7-2.6l6.7-11.1-3.9-3.9-11.1 6.7z"/>
			<path class="s0" d="m118.3 367.1c-2.6-4.1-8-8.1-8-8.1 0 0 0.6-2.2 0.4-2.9 0-0.4-1.1-0.9-1.1-0.9 0 0-1.1-0.5-1.4-0.3-0.6 0.3-2 2.1-2 2.1 0 0-6.4-1.9-11.3-1.4-4.9 0.5-10.8 3-10.8 3 0 0-1.6 3.2-1.8 3.6 1.3 1.5 5.6 4.3 6.2 4.7 0.8-1.1 2.1-2.7 2.5-3 0.7-0.6 1.3-0.6 2-0.2 0.9 0.6-0.1 2.8-1.4 5.1 1.9 1.3 5.8 3.2 7 3.9 1.1-2.2 2.8-4.6 4.3-3.9 1.5 0.7 0.6 3.5-0.5 5.8 1.3 0.6 5.2 2.5 7.3 3.2 1.1-2.4 2.2-4.6 3.2-4.2 0.8 0.3 1.1 0.8 1.1 1.7 0 0.6-0.5 2.5-0.9 3.8 0.8 0.3 5.6 2 7.6 2.1 0.2-0.4 1.8-3.6 1.8-3.6 0 0-1.6-6.3-4.1-10.4z"/>
			<path class="s0" d="m88.5 392.6l7.3-14.8 4 2-7.3 14.8z"/>
			<path class="s0" d="m183.9 365.4l-6.1 4.1-6.1-4.1-6.1 4.1v-9.2l-6.1-8.2-6.1 8.2v30.7h13.8v-6.9c0-2.5 2.1-4.6 4.6-4.6 2.5 0 4.6 2.1 4.6 4.6v6.9h13.8v-21.5l-6.1-4.1z"/>
			<path class="s0" d="m54.5 385.3c-1.4-1.9-3.8-4.9-8-8.5-4.6-3.8-8.1-5.2-8.1-5.2 0 0 2-3.7 2.8-5.1 0.8-1.4 1.9-4 1.4-4.5-0.5-0.5-3 0.7-4.5 1.4-1.4 0.8-5.1 2.8-5.1 2.8 0 0-1.4-3.5-5.2-8.1-3.5-4.3-6.5-6.7-8.5-8-1-0.7-1.6 1-2.1 4-1 5.6-1.5 12.8 4.6 23 0 0-6.5 4.6-8.2 5.6-1 0.6-0.8 1.4-0.4 1.9 0.4 0.4 3 3.2 3.4 3.5 0.3 0.4 3.1 3 3.5 3.4 0.4 0.4 1.2 0.6 1.9-0.4 1-1.6 5.6-8.2 5.6-8.2 10.2 6.1 17.3 5.6 23 4.6 2.9-0.5 4.7-1.1 4-2.1z"/>
			<path fill-rule="evenodd" class="s0" d="m121.6 458.1c-8.9 4.2-17 6.1-26 2.5-9.1-3.6-13.6-10.5-17.2-19.7 8.9-4.2 17-6.1 26-2.5 9.1 3.6 13.6 10.5 17.2 19.7zm-18.9-15.1c-3.7-1.5-7.8 0.3-9.2 3.9-1.5 3.7 0.3 7.8 3.9 9.2 3.7 1.5 7.8-0.3 9.2-3.9 1.5-3.7-0.3-7.8-3.9-9.2z"/>
			<path class="s0" d="m122.2 441.8c0.2 0.5 0.2 0.9-0.2 1.2-0.6 0.4-0.5 0.3-1 0.5-0.3 0.2-0.7 0-1.1-0.5-4.3-6.2-7.4-9.2-13.9-11.7-6.5-2.5-11.6-2.2-17.2-1.4-3.2 0.5-3.4-0.4-2.6-1.3 0.8-0.9 2.7-1.1 2.5-2-0.2-1-2.9 0.6-3.9-0.1-1.2-0.8 1.5-2.7 5.6-3.6 9.7-2 24.1 1.7 31.8 18.9z"/>
		</g>
		<path class="s0" d="m151.9 102.1h38.5c-6.9-3.3-11.8-8.4-11.8-9.4h7.3c-5.6-3.1-10.3-8.1-10.3-9.1h7.2c-7.6-4.2-11.1-12-11.5-12.2-0.4 0.3-4 8.1-11.5 12.2h7.2c0 1-4.7 5.9-10.3 9.1h7.3c0 0.9-4.9 6.1-11.8 9.4z"/>
		<path class="s0" d="m168.4 106.6h5.4v6.5h-5.4z"/>
		<path fill-rule="evenodd" class="s0" d="m116.1 100.4l5.3 1.4c-5.3 7.1-14.6 11.7-20 12-5.4-0.3-14.7-4.9-20-12l5.3-1.4c3.6 3 7.8 5 11.6 5.8v-19.9h-10.7c-1 0-1.8-0.8-1.8-1.8 0-1 0.8-1.8 1.8-1.8h10.3c-1.7-1.1-2.8-1.8-2.8-5.2 0-3.4 2.8-6.2 6.2-6.2 3.4 0 6.2 2.8 6.2 6.2 0 2.2-1.1 4.1-2.8 5.2h10.3c1 0 1.8 0.8 1.8 1.8 0 1-0.8 1.8-1.8 1.8h-10.7v20c3.8-0.7 8-2.7 11.6-5.8zm-17.7-22.7c0 1.5 1.3 2.7 2.8 2.7 1.5 0 2.7-1.3 2.7-2.8 0-1.5-1.3-2.7-2.8-2.7-1.5 0-2.7 1.3-2.7 2.8z"/>
		<path class="s0" d="m53.1 506.9c0 0-5.1 0.9-10.1 4.4 0 0.7 0 1.5 0 2.2 0 8.7-3.5 15-6.1 18.6 3.7-0.5 8.5-2.2 12.3-7.1 5.7-7.4 3.9-18.1 3.9-18.1z"/>
		<path class="s0" d="m21.6 501.5c-3-2.8-5.4-3.9-5.4-3.9 0 0-1 2.5-1.2 6.3 1.5 0.6 3.3 1.4 5.1 2.5 0.4-1.8 1-3.4 1.6-4.9z"/>
		<path class="s0" d="m31.2 495c0 0-7.4 6.8-7.4 18.5 0 11.7 7.4 18.5 7.4 18.5 0 0 7.4-6.8 7.4-18.5 0-11.7-7.4-18.5-7.4-18.5z"/>
		<path class="s0" d="m47.3 503.9c-0.3-3.9-1.2-6.3-1.2-6.3 0 0-2.4 1.1-5.4 3.9 0.6 1.5 1.2 3.1 1.6 4.9 1.8-1.1 3.5-1.9 5.1-2.5z"/>
		<path class="s0" d="m9.2 506.9c0 0 5.1 0.9 10.2 4.4 0 0.7 0 1.5 0 2.2 0 8.7 3.5 15 6.1 18.6-3.7-0.5-8.5-2.2-12.3-7.1-5.7-7.4-3.9-18.1-3.9-18.1z"/>
		<path class="s0" d="m82.2 503l1 4v25.5h11.3v-18.8c0-3.7 3-6.7 6.7-6.7 3.7 0 6.7 3 6.7 6.7v18.8h11.3v-25.5l1-4z"/>
		<path class="s0" d="m117.2 494.5h-9.8l-6.2-4-6.2 4h-9.8l-1 4h34z"/>
		<path fill-rule="evenodd" class="s0" d="m190.2 502.2c5.5 4 6.5 13.4 0.4 17.7-5.3 3.8-7.8 6.1-9.9 9.8-2.4 4.3-6.3 8.2-11.6 7.6-5.8-0.7-9.5-4.8-11.1-10.6-1.3-4.8-3.1-6.3-6.2-9.8-4.3-4.7-4.3-13.9 2-18 3.5-2.3 7.3-2.1 11-1.5 2.3-5 5.2-8.5 5.9-9.1 1.3-1.2 2.2-0.5 1.8 0.4-0.3 0.6-2.5 5.9-2.9 8.4-0.2 1.1 1.3 1.7 1.9 0.4 0.6-1.2 3-5.5 4.7-7.3 0.7-0.7 2.1-0.9 1.4 0.8-1.1 2.6-1.8 5-2.1 7-0.2 1.1 1.1 1.5 1.7 0.4 0.7-1.3 2.3-3.6 2.9-4.3 0.9-1.1 2.4-1.6 1.5 0.8-0.4 1.1-1 3.2-1.3 4.6 3.5 0.3 7.1 0.8 9.8 2.8zm-23.5 7.4c0.5-3.4-2-6.5-5.4-6.9-3.4-0.4-6.4 2.1-6.9 5.5-0.5 3.4 2 6.5 5.4 6.9 3.4 0.4 6.4-2.1 6.9-5.5zm3.2 6c-1-0.2-3.8 3.9-4.1 5-0.3 1-0.1 2 2.4 2.5 2.6 0.5 3.6-0.2 3.8-1 0.3-1.4-1-6.3-2.1-6.5zm12.3-10.6c-3.6-0.4-6.7 2.1-7.2 5.7-0.5 3.6 2 6.8 5.6 7.2 3.6 0.4 6.8-2.2 7.2-5.7 0.5-3.6-2-6.8-5.6-7.2z"/>
		<path class="s0" d="m20.7 571.3l-0.2-9c0-0.7-0.6-1.2-1.3-1.3-0.7 0-1.3 0.6-1.3 1.3l-0.2 9-5.2 5.2v24.5h13.5v-24.5l-5.2-5.2z"/>
		<path fill-rule="evenodd" class="s0" d="m44.1 561h-0.1v-0.1zm-0.1 0v12.6l5.9 5.9v21.5h-19.5v-40zm-3.4 3.3h-6.8v6.8h6.8z"/>
		<path class="s0" d="m126.6 579.5c0 0-8.4-2.1-17.4-0.6-7.4 1.2-15.2 2.5-17.8 2.9-3.7-3.9-10.6-11.1-11.2-11.8-0.9-1-2.1-0.7-1.8 0.6l4.1 16.5c-1.2 0.3-4.1 1.1-5.4 3.5 2.3 1.5 5.3 1 6.5 0.7l0.9 3.6 8.1-1-1.7 6.9c0.1 0.4 0.4 0.7 0.6 0.7l10.9-2.4c0.5 0 0.8-0.5 0.9-0.9l2.9-6.3c0 0 4.9-1.1 10.4-3 8.2-2.8 10.8-6.4 10.8-6.4l-0.7-2.8z"/>
		<path class="s0" d="m100.6 570.1c-4.1 0-7.2 3.1-7.9 7l15.4-2.5c-1.4-2.5-4.4-4.5-7.5-4.5z"/>
		<path class="s0" d="m170.1 562.2l-22.4 33.5h34.7z"/>
		<path class="s0" d="m177 567.9l10.1 27.9h7.5l-17.7-27.9z"/>
		<path class="s0" d="m47.5 644.2c1.8-3.7 1.1-8.3-2-11.4-3.1-3.1-7.7-3.7-11.4-2 0.6 3.2 2.2 6.2 4.7 8.7 2.5 2.5 5.5 4 8.7 4.7z"/>
		<path class="s0" d="m45 647.5c-3.4-0.5-6.7-2.1-9.3-4.8-2.6-2.6-4.2-5.9-4.8-9.3-3.4 3.9-3.2 9.8 0.5 13.6 3.7 3.8 9.6 3.9 13.6 0.5z"/>
		<path class="s0" d="m49.1 672.7c-1.5-6.4-7.4-8.8-12.2-8.3-3.6 0.4-6 2-8.3 3.6-2.5 1.7-4.8 3.3-8.7 3.3-3.9 0-3.4-1-4-2.5-0.7-1.7 0-3.7 2-5.7 0.4 0.3 0.9 0.7 1.1 0.8 0.6 0.4 1.4 0.3 2-0.1l12.6-10.2c-2-0.7-3.8-1.8-5.4-3.4-1.6-1.6-2.7-3.5-3.4-5.4l-10.2 12.6c-0.5 0.6-0.5 1.4-0.1 2q0.3 0.4 0.9 1.2c-3 3.1-4.1 6.6-2.8 9.7 1.2 2.8 4.1 4.7 7.4 4.7 5 0 8.1-2.1 10.8-3.9 2.1-1.5 3.9-2.7 6.6-3 2.3-0.3 7.1 0.6 8.3 5.5 0.2 0.8 0.9 1.4 1.8 1.4 0.9 0 0.3 0 0.4 0 1-0.2 1.6-1.2 1.3-2.2z"/>
		<path class="s0" d="m180.6 645.7v-8.8c0-3-4-7.2-9.4-7.2-5.4 0-9.4 4.2-9.4 7.2v8.8h18.9z"/>
		<path class="s0" d="m174.3 670.4h-6.3c-2.6 4.9 3.1 8.3 3.1 8.3 0 0 5.7-3.5 3.1-8.3z"/>
		<path class="s0" d="m185.3 650.2h-28.3c-4.1 2-7.8 7.5-9.5 12h9.9l3 3.8h21.7l3-3.8h9.9c-1.8-4.5-5.4-10-9.5-12z"/>
		<path fill-rule="evenodd" class="s0" d="m121.1 633.2l1.1 21.1c0.1 1-0.5 2-1.5 2.5l-19.6 10-19.6-10c-0.9-0.4-1.5-1.4-1.5-2.5l1.1-21.1h3.1l0.8 6.9h32.3l0.8-6.9zm-4.4 12.5h-31l0.6 5.5 14.9 7.1 14.9-7.1z"/>
		<path class="s0" d="m85.8 664.2c0.7 4.6 3.6 8.6 7.8 10.7l7.4 3.8 7.4-3.8c4.2-2.1 7.1-6.1 7.8-10.7l-15.2 7.8z"/>
	</g>
	<g id="b">
		<path fill-rule="evenodd" class="s1" d="m6.9 107.8c0 4.6 0.8 5.8 1.5 6 1.4 0.3 2.8-3.3 5-3 1.6 0.2 1.7 2.3 3.3 2.5 2.4 0.4 3.8-4 6.1-3.7 2.1 0.3 2.5 4.3 4.3 4.4 2 0 2.9-4.9 4.8-4.8 1.8 0 2.1 4.3 4.3 4.6 2.3 0.3 3.6-4.2 6.3-4.2 1.6 0 3 1.6 4 3.3 1 1.7 0.2 0.3 0.3 0.5"/>
		<path fill-rule="evenodd" class="s1" d="m50.5 113.2l9.7-18.8h-29.9l-9.1 2.5-1.2-3.5c8-0.8 9.4-1.8 9.5-2.4 0-1.2-4.1-2.8-8.1-2.5-2.7 0.2-4.8 1.2-6 2"/>
		<path fill-rule="evenodd" class="s0" d="m39.8 93.2c1.5-0.6 6.8-0.9 20.3 0-1.3 6.6-3.6 11.4-5.3 14.5-3 5.2-4.7 5.9-5.8 6.1-3.7 0.5-6.8-3.7-7.2-4.2-0.4 3.1-3.3 4.8-5.6 4.2-1.8-0.5-3.2-2.5-3.1-4.8-0.3 2.8-2.5 4.9-5 5.1-2.1 0.2-4.2-1.1-5.2-3.1-1.1 2.5-3.7 3.7-5.8 3.1-1.5-0.5-2.7-1.9-3.1-3.6-0.2 0.5-0.9 1.9-2.6 2.7-2.1 0.9-4.2 0.1-4.5 0-0.2-0.4-0.4-0.8-0.5-1.3-0.6-2.1 0.2-3.9 0.5-4.6 0.2 0 0.3-0.2 0.5-0.2-0.2-0.5-0.3-1.4 0-2.5 0.3-1.1 1-1.9 1.3-2.2 0.1 0 0.3 0 0.3 0 0.1-0.2 0.2-0.3 0.2-0.5 0.2-0.1 0.5-0.2 0.7-0.2-0.8-2.3-0.3-4.8 1.4-6.5 1.8-1.7 4.1-1.7 5.1-1.6-0.1-0.1-0.1-0.2-0.1-0.2-0.6-0.9-0.8-1.4-0.8-1.9 0.1-1.8 3.3-3 3.8-3.2 3.1-1.1 6.1-0.3 7.6 0.3l3.7 2.7c-4.4-1-7.9-0.1-8.7 1.8-0.2 0.4-0.4 1.1 0 2.3 7.7-2.5 10.8-2.5 12.2-1.9 0.2 0.1 1.2 0.5 2.5 0.5 1.6 0 2.9-0.6 3.1-0.7zm-28.6 6.1c-0.1 0.7-0.1 1.3-0.1 1.9 1.8-0.6 3.7-1.1 5.5-1.7 1.9-1 2.3-1.8 2.3-2.5-1.5-1-3.4-1.2-5-0.5-1.8 0.9-2.4 2.5-2.6 2.9zm8.7 3.1c-0.8-1.3-4.1-0.9-9.9 1.1-0.3 0.3-0.5 0.6-0.5 1 0 0.6 0.3 1 0.9 1.5 0.9 0.3 2.3 0.7 4.1 0.7 2.2-0.1 3.9-0.8 4.7-1.3 0.8-1.4 1.1-2.4 0.7-3z"/>
	</g>
</svg>