<?xml version="1.0" encoding="UTF-8"?><svg id="Layer_1" xmlns="http://www.w3.org/2000/svg" width="1.8in" height="2.1in" viewBox="0 0 126 150"><defs><style>.cls-1{fill:#167083;}.cls-2{fill:none;}.cls-3{fill:#af845a;}.cls-4{fill:#ffc075;}.cls-5{fill:#d2d2d2;}</style></defs><path class="cls-5" d="M7.9,20.3c-.9,0-1.6.7-1.6,1.6v32.2l3.3-2.2v-29.9c0-.9-.7-1.6-1.6-1.6Z"/><path class="cls-3" d="M17.3,46.5l-11.1,7.6v27.2h6.7v-9.7c0-2.2-.7-6.7,3.3-6.7l1.2-18.4Z"/><path class="cls-5" d="M118.7,20.3c-.9,0-1.6.7-1.6,1.6v29.9l3.3,2.2V21.9c0-.9-.7-1.6-1.6-1.6Z"/><path class="cls-3" d="M109.2,46.5l11.1,7.6v27.2h-6.7v-9.7c0-2.2.7-6.7-3.2-6.7l-1.2-18.4Z"/><path class="cls-4" d="M16.1,65c-4,0-3.3,4.5-3.3,6.7v16.8c.2,2,1.9,3.5,3.9,3.5h1.5v-27h-2.1Z"/><path class="cls-2" d="M0,0h126v150H0V0Z"/><path class="cls-5" d="M94.7,44.2c-20.7,10.8-35.7,13.6-34.9,12.5s10.3-10.8,7.3-9c-11.9,7-25,11.7-38.7,13.8-1,11.8-.9,13.3-.3,19.9.5,5.9,2.6,8.5,3.2,11.7,1.2,7.2.5,15.2,1.5,21.2.7,10.4,5.8,15.2,5.8,15.2,3.2,3,2.5,2.3,6.5,7,7.3,8.7,12.1,12.4,17,12.4,5.1,0,12.2-7.2,14.7-9.4s5.4-5.5,9.4-9.8c0,0,3.1-2.7,4.7-15.5.9-6.1.5-13.2,3.5-21.5,3-8.1,2.7-11.5,2.7-11.5,1-8.5,1-29.5,1-29.5,0-1.1.2-9.5-3.4-7.6Z"/><path class="cls-1" d="M102.6,59.2c-1.9,0-3.6,1-4.6,2.6-.1,6.6-.4,14.9-.9,19.6,0,1,0,2-.3,3v8c0,2.3,2.4,5.8,5.4,5.8,3.3,0,6-2.5,6.2-5.8v-27.7c0-3.1-1.9-5.5-5.8-5.5Z"/><path class="cls-1" d="M28.2,81.4c-.6-6.6-.6-8.1.3-19.9-1.1-1.5-2.9-2.3-4.7-2.3-2.9-.2-5.3,2-5.5,4.9,0,.2,0,.4,0,.6v27.7c.3,3.2,3,5.7,6.2,5.8,3,0,5.4-3.5,5.4-5.8v-3.6c-.9-2.3-1.5-4.8-1.7-7.3Z"/><path class="cls-4" d="M110.4,65h-2v27h1.3c2,0,3.7-1.6,3.9-3.6v-16.8c0-2.2.8-6.6-3.2-6.6Z"/><path class="cls-4" d="M109.2,46.5l7.8,5.4c-2.5-25.1-10.7-33.3-20.2-40.4-9.4-6.9-20.8-10.2-32.6-10.5h-1.9c-11.8.3-23.2,3.5-32.6,10.5-9.5,7.1-17.8,15.2-20.2,40.4l7.8-5.4c.3-2.3.8-4.6,1.3-6.9,3.6-10.8,9.5-17.9,16-22.6,10.4-7.5,22.2-8.9,28.7-9.1,6.5.1,18.3,1.6,28.7,9.1,6.5,4.7,12.4,11.9,16,22.7.6,2.3,1,4.6,1.3,6.9h0Z"/><path d="M32.8,114.3c-1-6-.2-14-1.5-21.2-.3-1.5-.8-3-1.4-4.4v3.6c0,2.3-2.4,5.8-5.4,5.8-3.2-.1-5.9-2.6-6.2-5.8v-.3h-1.5c-2,0-3.7-1.6-3.9-3.6v-7.1h-3.1c-3.8,10.1-10,13.3-9.3,13.4,8.1,0,11.4-3.6,11.4-3.6-1.8,5.5-12.2,11-11.3,11.2,5.9.8,11.8-.7,16.6-4.2,1.5,8.5,4.9,22.7,12.1,27.9.7.6.1-2.8.1-3.6.5.4,3,4.6,9,7.1,0,0-5.1-4.8-5.8-15.2Z"/><path d="M109.8,92h-1.3v.3c-.2,3.3-3,5.8-6.2,5.8-3,0-5.4-3.5-5.4-5.8v-8c-.6,2.9-1.4,5.7-2.4,8.5-3,8.3-2.6,15.4-3.5,21.5-1.7,12.8-4.7,15.5-4.7,15.5,5.9-2.7,8.1-8.2,8.3-7.6.3,1.3-.6,3.5-.6,5.6,3.3-2.3,5.9-5.4,7.6-9,.5,1.2.6,2.9,1.2,4.1,0,0,8.9-14.5,10-25.8.2-2.6.4-4.8.4-6.7-.8,1-1.9,1.6-3.2,1.6Z"/><path d="M98.1,51.8s0,4.3,0,9.9c1-1.5,2.8-2.5,4.6-2.6,3.9,0,5.8,2.4,5.8,5.5v.3h2l-1.2-18.4c-.3-2.3-.7-4.6-1.3-6.9-3.6-10.8-9.5-18-15.9-22.6-10.4-7.6-22.2-9-28.7-9.1-6.5.1-18.3,1.6-28.7,9.1-6.5,4.7-12.4,11.9-16,22.6-.6,2.3-1,4.6-1.3,6.9l-1.1,18.4h2.1v-.3c-.1-2.9,2.1-5.3,4.9-5.5.2,0,.4,0,.6,0,1.8,0,3.6.8,4.7,2.3,13.7-2.1,26.8-6.9,38.7-13.9,3-1.8-6.5,8-7.3,9s14.2-1.6,34.9-12.5c3.6-1.9,3.4,6.6,3.4,7.7h0Z"/></svg>